<svg width="572" height="64" viewBox="0 0 572 64" fill="none" xmlns="http://www.w3.org/2000/svg">
<path d="M101.982 2.50928L78.2423 42.9535C75.7815 47.0954 74.4305 51.3189 74.0552 55.3791H64.748C65.3807 50.263 67.3536 45.3918 71.4335 38.4089L88.0481 10.1453C91.3667 4.54482 94.6746 2.51472 100.674 2.51472H101.982V2.50928Z" fill="white"/>
<path d="M100.154 44.9724C98.4166 46.6051 95.0551 49.0652 92.2136 49.1523C90.2621 49.0652 90.1871 47.2038 91.5006 44.6404C96.5134 34.8926 101.778 29.733 108.276 29.7547H109.455L100.148 44.9724H100.154ZM108.925 24.274C96.8886 24.274 89.4901 31.393 82.9547 46.9752C81.3195 50.8885 80.3867 55.7379 85.9517 55.678C89.1255 55.6399 94.4171 53.8765 98.1485 51.2641C97.8429 52.5322 97.666 54.3174 97.8001 55.3787H106.244C106.539 52.0369 107.804 47.8733 110.581 42.8116L121.138 24.9326C117.127 24.4917 113.047 24.2686 108.914 24.2686L108.925 24.274Z" fill="white"/>
<path d="M186.974 44.9724C185.232 46.6051 181.875 49.0652 179.034 49.1523C177.082 49.0652 177.007 47.2038 178.321 44.6404C183.334 34.8926 188.598 29.733 195.096 29.7547H196.276L186.969 44.9724H186.974ZM195.745 24.274C183.709 24.274 176.31 31.393 169.775 46.9752C168.14 50.8885 167.207 55.7379 172.772 55.678C175.946 55.6399 181.237 53.8765 184.969 51.2641C184.663 52.5322 184.486 54.3174 184.62 55.3787H193.064C193.359 52.0369 194.624 47.8733 197.402 42.8116L207.958 24.9326C203.948 24.4917 199.868 24.2686 195.734 24.2686L195.745 24.274Z" fill="white"/>
<path d="M168.295 64H165.534C161.942 64 158.795 61.5726 157.841 58.0567L153.643 41.9791L145.799 55.3789H136.803L161.926 12.2079C165.164 6.6074 168.542 4.56641 174.541 4.56641H175.463L158.774 33.1784L171.287 24.4266H181.334L160.296 39.1762H160.286L168.295 63.9946V64Z" fill="white"/>
<path d="M85.4049 0C76.9287 0 72.5539 2.27502 64.2386 8.36534L36.0974 28.9603H18.0943C12.8831 28.9603 8.71741 29.1725 5.42559 32.3184L0.772021 36.6834C0.772021 36.6834 14.3146 36.15 26.9403 35.6602L0 55.3789H11.6447L39.2015 35.1867C44.5413 34.9798 48.2513 34.8438 48.2835 34.8547C54.7063 34.6696 58.2715 28.9603 58.2715 28.9603H47.7045L69.9644 12.6487L53.441 39.8728C49.9026 46.1264 48.2031 50.5893 47.608 55.3789H57.1725C57.5531 51.3186 58.9042 47.0952 61.365 42.9533L83.8984 4.76775C85.4639 2.1444 86.8363 0 86.8363 0H85.4049Z" fill="white"/>
<path d="M130.252 33.0313C130.134 33.8477 130.466 34.343 132.085 35.4043L134.664 37.1242C137.457 39.0073 138.589 41.794 138.256 44.0908C137.323 50.4859 132.686 55.64 122.837 55.6509C118.527 55.6509 116.581 55.5149 111.445 54.644L115.267 48.102C118.827 48.7279 120.859 49.0599 123.523 49.049C127.233 49.049 128.713 47.3509 128.922 45.9576C129.04 45.1358 128.649 44.1833 126.89 42.9478L124.842 41.4783C121.561 39.1053 120.703 37.2222 121.132 34.2722C121.958 28.6065 128.413 24.2687 137.377 24.2687C140.192 24.2632 143.274 24.4537 146.62 24.8075L143.022 30.9849C140.819 30.7998 137.238 30.6366 134.712 30.7182C132.123 30.8053 130.445 31.7088 130.257 33.0204L130.252 33.0313Z" fill="white"/>
<path d="M202.822 49.7349C204.462 49.7349 205.787 51.0955 205.787 52.761C205.787 54.4264 204.462 55.798 202.822 55.798C201.181 55.798 199.878 54.4264 199.878 52.761C199.878 51.0955 201.187 49.7349 202.822 49.7349ZM202.822 55.1993C204.114 55.1993 205.132 54.138 205.132 52.761C205.132 51.384 204.114 50.3336 202.822 50.3336C201.53 50.3336 200.511 51.384 200.511 52.761C200.511 54.138 201.53 55.1993 202.822 55.1993ZM202.452 54.3883H201.835V51.0901H202.956C203.588 51.0901 204.055 51.5418 204.055 52.1242C204.055 52.5814 203.765 52.9624 203.342 53.1039L204.071 54.3883H203.369L202.688 53.1583H202.446V54.3883H202.452ZM202.87 52.614C203.235 52.614 203.433 52.4344 203.433 52.1296C203.433 51.8085 203.229 51.6289 202.87 51.6289H202.452V52.614H202.87Z" fill="white"/>
<path d="M252.111 35.5651L266.356 23.145C266.624 22.911 266.983 23.2811 266.758 23.5532L254.524 38.0143C254.009 38.6239 254.009 39.5274 254.524 40.1369L266.758 54.598C266.989 54.8702 266.624 55.2348 266.356 55.0062L252.111 42.5861C251.511 42.0636 250.621 42.0636 250.02 42.5861L235.776 55.0062C235.507 55.2403 235.148 54.8702 235.373 54.598L247.608 40.1369C248.122 39.5274 248.122 38.6239 247.608 38.0143L235.373 23.5532C235.143 23.2811 235.507 22.9164 235.776 23.145L250.02 35.5651C250.621 36.0876 251.511 36.0876 252.111 35.5651Z" fill="white"/>
<path d="M326.433 16.9483V51.6179C326.433 53.1528 326.433 55.3461 324.379 55.3461H318.653V39.655H301.953V51.6125C301.953 53.1473 302.06 55.3407 300.007 55.3407H294.174V20.6711C294.174 19.1362 294.174 16.9429 296.227 16.9429H301.953V33.4558H318.648V20.6765C318.648 19.1961 318.541 16.9483 320.594 16.9483H326.433Z" fill="white"/>
<path d="M366.899 55.3461H360.091L356.525 44.6513H341.669L339.074 52.5486C338.646 53.8112 338.05 55.3461 336.104 55.3461H330.432L342.591 20.1322C343.026 18.9239 343.615 16.9482 345.669 16.9482H354.906L367.768 54.0834C368.036 54.8508 367.661 55.3461 366.905 55.3461M354.531 38.6154L349.18 22.4888L341.616 43.824L341.943 43.8784C342.967 41.9572 345.454 38.61 349.835 38.61H354.536L354.531 38.6154Z" fill="white"/>
<path d="M420.228 16.9482L407.801 52.5486C407.532 53.3704 407.045 55.3461 405.098 55.3461H400.343L393.266 34.8872L386.945 52.5486C386.677 53.3704 386.189 55.3461 384.243 55.3461H379.053L366.192 18.2109C365.924 17.4435 366.299 16.9482 367.055 16.9482H373.917L383.214 45.582L389.915 25.2319L387.487 18.2109C387.219 17.4435 387.594 16.9482 388.35 16.9482H395.266L403.86 44.8146L411.371 19.7458C411.752 18.4831 412.4 16.9482 414.288 16.9482H420.233H420.228Z" fill="white"/>
<path d="M454.266 55.3461H447.458L443.892 44.6513H429.031L426.436 52.5486C426.002 53.8112 425.412 55.3461 423.466 55.3461H417.794L429.953 20.1322C430.387 18.9239 430.977 16.9482 433.036 16.9482H442.273L455.135 54.0834C455.403 54.8508 455.028 55.3461 454.272 55.3461M441.898 38.6154L436.547 22.4888L428.983 43.824L429.304 43.8784C430.328 41.9572 432.816 38.61 437.191 38.61H441.893L441.898 38.6154Z" fill="white"/>
<path d="M459.558 20.6765C459.558 19.1416 459.558 16.9482 461.397 16.9482H467.343V51.6179C467.343 53.1527 467.343 55.3461 465.504 55.3461H459.558V20.6765Z" fill="white"/>
<path d="M475.336 20.6765C475.336 19.1416 475.336 16.9482 477.175 16.9482H483.121V51.6179C483.121 53.1527 483.121 55.3461 481.282 55.3461H475.342V20.6765H475.336Z" fill="white"/>
<path d="M523.588 55.3461H516.779L513.214 44.6513H498.352L495.757 52.5486C495.323 53.8112 494.728 55.3461 492.787 55.3461H487.115L499.274 20.1322C499.709 18.9239 500.298 16.9482 502.357 16.9482H511.594L524.456 54.0834C524.724 54.8508 524.349 55.3461 523.593 55.3461M511.219 38.6154L505.869 22.4888L498.304 43.824L498.626 43.8784C499.65 41.9572 502.137 38.61 506.512 38.61H511.214L511.219 38.6154Z" fill="white"/>
<path d="M561.626 16.9482V51.6179C561.626 53.1527 561.626 55.3461 559.787 55.3461H554.924L536.444 29.9507V51.6179C536.444 53.1527 536.444 55.3461 534.444 55.3461H528.879V20.6765C528.879 19.1416 528.879 16.9482 530.718 16.9482H535.795L554.061 42.8389V20.6765C554.061 19.1416 553.739 16.9482 555.846 16.9482H561.626Z" fill="white"/>
<path d="M568.906 49.7021C570.547 49.7021 571.871 51.0628 571.871 52.7283C571.871 54.3937 570.547 55.7653 568.906 55.7653C567.266 55.7653 565.963 54.3937 565.963 52.7283C565.963 51.0628 567.271 49.7021 568.906 49.7021ZM568.906 55.1666C570.198 55.1666 571.217 54.1053 571.217 52.7283C571.217 51.3513 570.198 50.3008 568.906 50.3008C567.614 50.3008 566.596 51.3513 566.596 52.7283C566.596 54.1053 567.614 55.1666 568.906 55.1666ZM568.536 54.3556H567.92V51.0574H569.04C569.673 51.0574 570.139 51.5091 570.139 52.0915C570.139 52.5487 569.85 52.9296 569.426 53.0711L570.155 54.3556H569.453L568.772 53.1256H568.531V54.3556H568.536ZM568.954 52.5813C569.319 52.5813 569.517 52.4017 569.517 52.0969C569.517 51.7758 569.314 51.5962 568.954 51.5962H568.536V52.5813H568.954Z" fill="white"/>
</svg>
